<svg xmlns="http://www.w3.org/2000/svg" viewBox="0 0 576 576" width="576" height="576"><rect x="0" y="0" width="576" height="576" rx="96" ry="96" fill="#0a0a12"/><rect x="128" y="32" width="32" height="32" fill="#2effe0" fill-opacity="1"/><rect x="160" y="32" width="32" height="32" fill="#2effe0" fill-opacity="1"/><rect x="192" y="32" width="32" height="32" fill="#2effe0" fill-opacity="1"/><rect x="224" y="32" width="32" height="32" fill="#2effe0" fill-opacity="1"/><rect x="256" y="32" width="32" height="32" fill="#2effe0" fill-opacity="1"/><rect x="96" y="64" width="32" height="32" fill="#2effe0" fill-opacity="1"/><rect x="128" y="64" width="32" height="32" fill="#2effe0" fill-opacity="1"/><rect x="160" y="64" width="32" height="32" fill="#2effe0" fill-opacity="1"/><rect x="192" y="64" width="32" height="32" fill="#2effe0" fill-opacity="1"/><rect x="224" y="64" width="32" height="32" fill="#2effe0" fill-opacity="1"/><rect x="256" y="64" width="32" height="32" fill="#2effe0" fill-opacity="1"/><rect x="288" y="64" width="32" height="32" fill="#2effe0" fill-opacity="1"/><rect x="320" y="64" width="32" height="32" fill="#2effe0" fill-opacity="1"/><rect x="64" y="96" width="32" height="32" fill="#2effe0" fill-opacity="1"/><rect x="96" y="96" width="32" height="32" fill="#2effe0" fill-opacity="1"/><rect x="128" y="96" width="32" height="32" fill="#2effe0" fill-opacity="1"/><rect x="160" y="96" width="32" height="32" fill="#2effe0" fill-opacity="1"/><rect x="192" y="96" width="32" height="32" fill="#2effe0" fill-opacity="1"/><rect x="224" y="96" width="32" height="32" fill="#2effe0" fill-opacity="1"/><rect x="256" y="96" width="32" height="32" fill="#2effe0" fill-opacity="1"/><rect x="288" y="96" width="32" height="32" fill="#2effe0" fill-opacity="1"/><rect x="320" y="96" width="32" height="32" fill="#2effe0" fill-opacity="1"/><rect x="352" y="96" width="32" height="32" fill="#2effe0" fill-opacity="1"/><rect x="32" y="128" width="32" height="32" fill="#2effe0" fill-opacity="1"/><rect x="64" y="128" width="32" height="32" fill="#2effe0" fill-opacity="1"/><rect x="96" y="128" width="32" height="32" fill="#2effe0" fill-opacity="1"/><rect x="128" y="128" width="32" height="32" fill="#2effe0" fill-opacity="1"/><rect x="320" y="128" width="32" height="32" fill="#2effe0" fill-opacity="1"/><rect x="352" y="128" width="32" height="32" fill="#2effe0" fill-opacity="1"/><rect x="384" y="128" width="32" height="32" fill="#2effe0" fill-opacity="1"/><rect x="32" y="160" width="32" height="32" fill="#2effe0" fill-opacity="1"/><rect x="64" y="160" width="32" height="32" fill="#2effe0" fill-opacity="1"/><rect x="96" y="160" width="32" height="32" fill="#2effe0" fill-opacity="1"/><rect x="352" y="160" width="32" height="32" fill="#2effe0" fill-opacity="1"/><rect x="384" y="160" width="32" height="32" fill="#2effe0" fill-opacity="1"/><rect x="32" y="192" width="32" height="32" fill="#2effe0" fill-opacity="1"/><rect x="64" y="192" width="32" height="32" fill="#2effe0" fill-opacity="1"/><rect x="96" y="192" width="32" height="32" fill="#2effe0" fill-opacity="1"/><rect x="32" y="224" width="32" height="32" fill="#2effe0" fill-opacity="1"/><rect x="64" y="224" width="32" height="32" fill="#2effe0" fill-opacity="1"/><rect x="96" y="224" width="32" height="32" fill="#2effe0" fill-opacity="1"/><rect x="32" y="256" width="32" height="32" fill="#2effe0" fill-opacity="1"/><rect x="64" y="256" width="32" height="32" fill="#2effe0" fill-opacity="1"/><rect x="96" y="256" width="32" height="32" fill="#2effe0" fill-opacity="1"/><rect x="32" y="288" width="32" height="32" fill="#2effe0" fill-opacity="1"/><rect x="64" y="288" width="32" height="32" fill="#2effe0" fill-opacity="1"/><rect x="96" y="288" width="32" height="32" fill="#2effe0" fill-opacity="1"/><rect x="32" y="320" width="32" height="32" fill="#2effe0" fill-opacity="1"/><rect x="64" y="320" width="32" height="32" fill="#2effe0" fill-opacity="1"/><rect x="96" y="320" width="32" height="32" fill="#2effe0" fill-opacity="1"/><rect x="32" y="352" width="32" height="32" fill="#2effe0" fill-opacity="1"/><rect x="64" y="352" width="32" height="32" fill="#2effe0" fill-opacity="1"/><rect x="96" y="352" width="32" height="32" fill="#2effe0" fill-opacity="1"/><rect x="32" y="384" width="32" height="32" fill="#2effe0" fill-opacity="1"/><rect x="64" y="384" width="32" height="32" fill="#2effe0" fill-opacity="1"/><rect x="96" y="384" width="32" height="32" fill="#2effe0" fill-opacity="1"/><rect x="352" y="384" width="32" height="32" fill="#2effe0" fill-opacity="1"/><rect x="384" y="384" width="32" height="32" fill="#2effe0" fill-opacity="1"/><rect x="32" y="416" width="32" height="32" fill="#2effe0" fill-opacity="1"/><rect x="64" y="416" width="32" height="32" fill="#2effe0" fill-opacity="1"/><rect x="96" y="416" width="32" height="32" fill="#2effe0" fill-opacity="1"/><rect x="128" y="416" width="32" height="32" fill="#2effe0" fill-opacity="1"/><rect x="320" y="416" width="32" height="32" fill="#2effe0" fill-opacity="1"/><rect x="352" y="416" width="32" height="32" fill="#2effe0" fill-opacity="1"/><rect x="384" y="416" width="32" height="32" fill="#2effe0" fill-opacity="1"/><rect x="64" y="448" width="32" height="32" fill="#2effe0" fill-opacity="1"/><rect x="96" y="448" width="32" height="32" fill="#2effe0" fill-opacity="1"/><rect x="128" y="448" width="32" height="32" fill="#2effe0" fill-opacity="1"/><rect x="160" y="448" width="32" height="32" fill="#2effe0" fill-opacity="1"/><rect x="192" y="448" width="32" height="32" fill="#2effe0" fill-opacity="1"/><rect x="224" y="448" width="32" height="32" fill="#2effe0" fill-opacity="1"/><rect x="256" y="448" width="32" height="32" fill="#2effe0" fill-opacity="1"/><rect x="288" y="448" width="32" height="32" fill="#2effe0" fill-opacity="1"/><rect x="320" y="448" width="32" height="32" fill="#2effe0" fill-opacity="1"/><rect x="352" y="448" width="32" height="32" fill="#2effe0" fill-opacity="1"/><rect x="96" y="480" width="32" height="32" fill="#2effe0" fill-opacity="1"/><rect x="128" y="480" width="32" height="32" fill="#2effe0" fill-opacity="1"/><rect x="160" y="480" width="32" height="32" fill="#2effe0" fill-opacity="1"/><rect x="192" y="480" width="32" height="32" fill="#2effe0" fill-opacity="1"/><rect x="224" y="480" width="32" height="32" fill="#2effe0" fill-opacity="1"/><rect x="256" y="480" width="32" height="32" fill="#2effe0" fill-opacity="1"/><rect x="288" y="480" width="32" height="32" fill="#2effe0" fill-opacity="1"/><rect x="320" y="480" width="32" height="32" fill="#2effe0" fill-opacity="1"/><rect x="128" y="512" width="32" height="32" fill="#2effe0" fill-opacity="1"/><rect x="160" y="512" width="32" height="32" fill="#2effe0" fill-opacity="1"/><rect x="192" y="512" width="32" height="32" fill="#2effe0" fill-opacity="1"/><rect x="224" y="512" width="32" height="32" fill="#2effe0" fill-opacity="1"/><rect x="256" y="512" width="32" height="32" fill="#2effe0" fill-opacity="1"/></svg>