<svg xmlns="http://www.w3.org/2000/svg" viewBox="0 0 576 576" width="576" height="576"><rect x="124" y="32" width="32" height="32" fill="#ff2e88" fill-opacity="0.7"/><rect x="156" y="32" width="32" height="32" fill="#ff2e88" fill-opacity="0.7"/><rect x="188" y="32" width="32" height="32" fill="#ff2e88" fill-opacity="0.7"/><rect x="220" y="32" width="32" height="32" fill="#ff2e88" fill-opacity="0.7"/><rect x="252" y="32" width="32" height="32" fill="#ff2e88" fill-opacity="0.7"/><rect x="92" y="64" width="32" height="32" fill="#ff2e88" fill-opacity="0.7"/><rect x="124" y="64" width="32" height="32" fill="#ff2e88" fill-opacity="0.7"/><rect x="156" y="64" width="32" height="32" fill="#ff2e88" fill-opacity="0.7"/><rect x="188" y="64" width="32" height="32" fill="#ff2e88" fill-opacity="0.7"/><rect x="220" y="64" width="32" height="32" fill="#ff2e88" fill-opacity="0.7"/><rect x="252" y="64" width="32" height="32" fill="#ff2e88" fill-opacity="0.7"/><rect x="284" y="64" width="32" height="32" fill="#ff2e88" fill-opacity="0.7"/><rect x="316" y="64" width="32" height="32" fill="#ff2e88" fill-opacity="0.7"/><rect x="60" y="96" width="32" height="32" fill="#ff2e88" fill-opacity="0.7"/><rect x="92" y="96" width="32" height="32" fill="#ff2e88" fill-opacity="0.7"/><rect x="124" y="96" width="32" height="32" fill="#ff2e88" fill-opacity="0.7"/><rect x="156" y="96" width="32" height="32" fill="#ff2e88" fill-opacity="0.7"/><rect x="188" y="96" width="32" height="32" fill="#ff2e88" fill-opacity="0.7"/><rect x="220" y="96" width="32" height="32" fill="#ff2e88" fill-opacity="0.7"/><rect x="252" y="96" width="32" height="32" fill="#ff2e88" fill-opacity="0.7"/><rect x="284" y="96" width="32" height="32" fill="#ff2e88" fill-opacity="0.7"/><rect x="316" y="96" width="32" height="32" fill="#ff2e88" fill-opacity="0.7"/><rect x="348" y="96" width="32" height="32" fill="#ff2e88" fill-opacity="0.7"/><rect x="28" y="128" width="32" height="32" fill="#ff2e88" fill-opacity="0.7"/><rect x="60" y="128" width="32" height="32" fill="#ff2e88" fill-opacity="0.7"/><rect x="92" y="128" width="32" height="32" fill="#ff2e88" fill-opacity="0.7"/><rect x="124" y="128" width="32" height="32" fill="#ff2e88" fill-opacity="0.7"/><rect x="316" y="128" width="32" height="32" fill="#ff2e88" fill-opacity="0.7"/><rect x="348" y="128" width="32" height="32" fill="#ff2e88" fill-opacity="0.7"/><rect x="380" y="128" width="32" height="32" fill="#ff2e88" fill-opacity="0.7"/><rect x="28" y="160" width="32" height="32" fill="#ff2e88" fill-opacity="0.7"/><rect x="60" y="160" width="32" height="32" fill="#ff2e88" fill-opacity="0.7"/><rect x="92" y="160" width="32" height="32" fill="#ff2e88" fill-opacity="0.7"/><rect x="348" y="160" width="32" height="32" fill="#ff2e88" fill-opacity="0.7"/><rect x="380" y="160" width="32" height="32" fill="#ff2e88" fill-opacity="0.7"/><rect x="28" y="192" width="32" height="32" fill="#ff2e88" fill-opacity="0.7"/><rect x="60" y="192" width="32" height="32" fill="#ff2e88" fill-opacity="0.7"/><rect x="92" y="192" width="32" height="32" fill="#ff2e88" fill-opacity="0.7"/><rect x="28" y="224" width="32" height="32" fill="#ff2e88" fill-opacity="0.7"/><rect x="60" y="224" width="32" height="32" fill="#ff2e88" fill-opacity="0.7"/><rect x="92" y="224" width="32" height="32" fill="#ff2e88" fill-opacity="0.7"/><rect x="28" y="256" width="32" height="32" fill="#ff2e88" fill-opacity="0.7"/><rect x="60" y="256" width="32" height="32" fill="#ff2e88" fill-opacity="0.7"/><rect x="92" y="256" width="32" height="32" fill="#ff2e88" fill-opacity="0.7"/><rect x="28" y="288" width="32" height="32" fill="#ff2e88" fill-opacity="0.7"/><rect x="60" y="288" width="32" height="32" fill="#ff2e88" fill-opacity="0.7"/><rect x="92" y="288" width="32" height="32" fill="#ff2e88" fill-opacity="0.7"/><rect x="28" y="320" width="32" height="32" fill="#ff2e88" fill-opacity="0.7"/><rect x="60" y="320" width="32" height="32" fill="#ff2e88" fill-opacity="0.7"/><rect x="92" y="320" width="32" height="32" fill="#ff2e88" fill-opacity="0.7"/><rect x="28" y="352" width="32" height="32" fill="#ff2e88" fill-opacity="0.7"/><rect x="60" y="352" width="32" height="32" fill="#ff2e88" fill-opacity="0.7"/><rect x="92" y="352" width="32" height="32" fill="#ff2e88" fill-opacity="0.7"/><rect x="28" y="384" width="32" height="32" fill="#ff2e88" fill-opacity="0.7"/><rect x="60" y="384" width="32" height="32" fill="#ff2e88" fill-opacity="0.7"/><rect x="92" y="384" width="32" height="32" fill="#ff2e88" fill-opacity="0.7"/><rect x="348" y="384" width="32" height="32" fill="#ff2e88" fill-opacity="0.7"/><rect x="380" y="384" width="32" height="32" fill="#ff2e88" fill-opacity="0.7"/><rect x="28" y="416" width="32" height="32" fill="#ff2e88" fill-opacity="0.7"/><rect x="60" y="416" width="32" height="32" fill="#ff2e88" fill-opacity="0.7"/><rect x="92" y="416" width="32" height="32" fill="#ff2e88" fill-opacity="0.7"/><rect x="124" y="416" width="32" height="32" fill="#ff2e88" fill-opacity="0.7"/><rect x="316" y="416" width="32" height="32" fill="#ff2e88" fill-opacity="0.7"/><rect x="348" y="416" width="32" height="32" fill="#ff2e88" fill-opacity="0.7"/><rect x="380" y="416" width="32" height="32" fill="#ff2e88" fill-opacity="0.7"/><rect x="60" y="448" width="32" height="32" fill="#ff2e88" fill-opacity="0.7"/><rect x="92" y="448" width="32" height="32" fill="#ff2e88" fill-opacity="0.7"/><rect x="124" y="448" width="32" height="32" fill="#ff2e88" fill-opacity="0.7"/><rect x="156" y="448" width="32" height="32" fill="#ff2e88" fill-opacity="0.7"/><rect x="188" y="448" width="32" height="32" fill="#ff2e88" fill-opacity="0.7"/><rect x="220" y="448" width="32" height="32" fill="#ff2e88" fill-opacity="0.7"/><rect x="252" y="448" width="32" height="32" fill="#ff2e88" fill-opacity="0.7"/><rect x="284" y="448" width="32" height="32" fill="#ff2e88" fill-opacity="0.7"/><rect x="316" y="448" width="32" height="32" fill="#ff2e88" fill-opacity="0.7"/><rect x="348" y="448" width="32" height="32" fill="#ff2e88" fill-opacity="0.7"/><rect x="92" y="480" width="32" height="32" fill="#ff2e88" fill-opacity="0.7"/><rect x="124" y="480" width="32" height="32" fill="#ff2e88" fill-opacity="0.7"/><rect x="156" y="480" width="32" height="32" fill="#ff2e88" fill-opacity="0.7"/><rect x="188" y="480" width="32" height="32" fill="#ff2e88" fill-opacity="0.7"/><rect x="220" y="480" width="32" height="32" fill="#ff2e88" fill-opacity="0.7"/><rect x="252" y="480" width="32" height="32" fill="#ff2e88" fill-opacity="0.7"/><rect x="284" y="480" width="32" height="32" fill="#ff2e88" fill-opacity="0.7"/><rect x="316" y="480" width="32" height="32" fill="#ff2e88" fill-opacity="0.7"/><rect x="124" y="512" width="32" height="32" fill="#ff2e88" fill-opacity="0.7"/><rect x="156" y="512" width="32" height="32" fill="#ff2e88" fill-opacity="0.7"/><rect x="188" y="512" width="32" height="32" fill="#ff2e88" fill-opacity="0.7"/><rect x="220" y="512" width="32" height="32" fill="#ff2e88" fill-opacity="0.7"/><rect x="252" y="512" width="32" height="32" fill="#ff2e88" fill-opacity="0.7"/><rect x="132" y="32" width="32" height="32" fill="#f4e04d" fill-opacity="0.55"/><rect x="164" y="32" width="32" height="32" fill="#f4e04d" fill-opacity="0.55"/><rect x="196" y="32" width="32" height="32" fill="#f4e04d" fill-opacity="0.55"/><rect x="228" y="32" width="32" height="32" fill="#f4e04d" fill-opacity="0.55"/><rect x="260" y="32" width="32" height="32" fill="#f4e04d" fill-opacity="0.55"/><rect x="100" y="64" width="32" height="32" fill="#f4e04d" fill-opacity="0.55"/><rect x="132" y="64" width="32" height="32" fill="#f4e04d" fill-opacity="0.55"/><rect x="164" y="64" width="32" height="32" fill="#f4e04d" fill-opacity="0.55"/><rect x="196" y="64" width="32" height="32" fill="#f4e04d" fill-opacity="0.55"/><rect x="228" y="64" width="32" height="32" fill="#f4e04d" fill-opacity="0.55"/><rect x="260" y="64" width="32" height="32" fill="#f4e04d" fill-opacity="0.55"/><rect x="292" y="64" width="32" height="32" fill="#f4e04d" fill-opacity="0.55"/><rect x="324" y="64" width="32" height="32" fill="#f4e04d" fill-opacity="0.55"/><rect x="68" y="96" width="32" height="32" fill="#f4e04d" fill-opacity="0.55"/><rect x="100" y="96" width="32" height="32" fill="#f4e04d" fill-opacity="0.55"/><rect x="132" y="96" width="32" height="32" fill="#f4e04d" fill-opacity="0.55"/><rect x="164" y="96" width="32" height="32" fill="#f4e04d" fill-opacity="0.55"/><rect x="196" y="96" width="32" height="32" fill="#f4e04d" fill-opacity="0.55"/><rect x="228" y="96" width="32" height="32" fill="#f4e04d" fill-opacity="0.55"/><rect x="260" y="96" width="32" height="32" fill="#f4e04d" fill-opacity="0.55"/><rect x="292" y="96" width="32" height="32" fill="#f4e04d" fill-opacity="0.55"/><rect x="324" y="96" width="32" height="32" fill="#f4e04d" fill-opacity="0.55"/><rect x="356" y="96" width="32" height="32" fill="#f4e04d" fill-opacity="0.55"/><rect x="36" y="128" width="32" height="32" fill="#f4e04d" fill-opacity="0.55"/><rect x="68" y="128" width="32" height="32" fill="#f4e04d" fill-opacity="0.55"/><rect x="100" y="128" width="32" height="32" fill="#f4e04d" fill-opacity="0.55"/><rect x="132" y="128" width="32" height="32" fill="#f4e04d" fill-opacity="0.55"/><rect x="324" y="128" width="32" height="32" fill="#f4e04d" fill-opacity="0.55"/><rect x="356" y="128" width="32" height="32" fill="#f4e04d" fill-opacity="0.55"/><rect x="388" y="128" width="32" height="32" fill="#f4e04d" fill-opacity="0.55"/><rect x="36" y="160" width="32" height="32" fill="#f4e04d" fill-opacity="0.55"/><rect x="68" y="160" width="32" height="32" fill="#f4e04d" fill-opacity="0.55"/><rect x="100" y="160" width="32" height="32" fill="#f4e04d" fill-opacity="0.55"/><rect x="356" y="160" width="32" height="32" fill="#f4e04d" fill-opacity="0.55"/><rect x="388" y="160" width="32" height="32" fill="#f4e04d" fill-opacity="0.55"/><rect x="36" y="192" width="32" height="32" fill="#f4e04d" fill-opacity="0.55"/><rect x="68" y="192" width="32" height="32" fill="#f4e04d" fill-opacity="0.55"/><rect x="100" y="192" width="32" height="32" fill="#f4e04d" fill-opacity="0.55"/><rect x="36" y="224" width="32" height="32" fill="#f4e04d" fill-opacity="0.55"/><rect x="68" y="224" width="32" height="32" fill="#f4e04d" fill-opacity="0.55"/><rect x="100" y="224" width="32" height="32" fill="#f4e04d" fill-opacity="0.55"/><rect x="36" y="256" width="32" height="32" fill="#f4e04d" fill-opacity="0.55"/><rect x="68" y="256" width="32" height="32" fill="#f4e04d" fill-opacity="0.55"/><rect x="100" y="256" width="32" height="32" fill="#f4e04d" fill-opacity="0.55"/><rect x="36" y="288" width="32" height="32" fill="#f4e04d" fill-opacity="0.55"/><rect x="68" y="288" width="32" height="32" fill="#f4e04d" fill-opacity="0.55"/><rect x="100" y="288" width="32" height="32" fill="#f4e04d" fill-opacity="0.55"/><rect x="36" y="320" width="32" height="32" fill="#f4e04d" fill-opacity="0.55"/><rect x="68" y="320" width="32" height="32" fill="#f4e04d" fill-opacity="0.55"/><rect x="100" y="320" width="32" height="32" fill="#f4e04d" fill-opacity="0.55"/><rect x="36" y="352" width="32" height="32" fill="#f4e04d" fill-opacity="0.55"/><rect x="68" y="352" width="32" height="32" fill="#f4e04d" fill-opacity="0.55"/><rect x="100" y="352" width="32" height="32" fill="#f4e04d" fill-opacity="0.55"/><rect x="36" y="384" width="32" height="32" fill="#f4e04d" fill-opacity="0.55"/><rect x="68" y="384" width="32" height="32" fill="#f4e04d" fill-opacity="0.55"/><rect x="100" y="384" width="32" height="32" fill="#f4e04d" fill-opacity="0.55"/><rect x="356" y="384" width="32" height="32" fill="#f4e04d" fill-opacity="0.55"/><rect x="388" y="384" width="32" height="32" fill="#f4e04d" fill-opacity="0.55"/><rect x="36" y="416" width="32" height="32" fill="#f4e04d" fill-opacity="0.55"/><rect x="68" y="416" width="32" height="32" fill="#f4e04d" fill-opacity="0.55"/><rect x="100" y="416" width="32" height="32" fill="#f4e04d" fill-opacity="0.55"/><rect x="132" y="416" width="32" height="32" fill="#f4e04d" fill-opacity="0.55"/><rect x="324" y="416" width="32" height="32" fill="#f4e04d" fill-opacity="0.55"/><rect x="356" y="416" width="32" height="32" fill="#f4e04d" fill-opacity="0.55"/><rect x="388" y="416" width="32" height="32" fill="#f4e04d" fill-opacity="0.55"/><rect x="68" y="448" width="32" height="32" fill="#f4e04d" fill-opacity="0.55"/><rect x="100" y="448" width="32" height="32" fill="#f4e04d" fill-opacity="0.55"/><rect x="132" y="448" width="32" height="32" fill="#f4e04d" fill-opacity="0.55"/><rect x="164" y="448" width="32" height="32" fill="#f4e04d" fill-opacity="0.55"/><rect x="196" y="448" width="32" height="32" fill="#f4e04d" fill-opacity="0.55"/><rect x="228" y="448" width="32" height="32" fill="#f4e04d" fill-opacity="0.55"/><rect x="260" y="448" width="32" height="32" fill="#f4e04d" fill-opacity="0.55"/><rect x="292" y="448" width="32" height="32" fill="#f4e04d" fill-opacity="0.55"/><rect x="324" y="448" width="32" height="32" fill="#f4e04d" fill-opacity="0.55"/><rect x="356" y="448" width="32" height="32" fill="#f4e04d" fill-opacity="0.55"/><rect x="100" y="480" width="32" height="32" fill="#f4e04d" fill-opacity="0.55"/><rect x="132" y="480" width="32" height="32" fill="#f4e04d" fill-opacity="0.55"/><rect x="164" y="480" width="32" height="32" fill="#f4e04d" fill-opacity="0.55"/><rect x="196" y="480" width="32" height="32" fill="#f4e04d" fill-opacity="0.55"/><rect x="228" y="480" width="32" height="32" fill="#f4e04d" fill-opacity="0.55"/><rect x="260" y="480" width="32" height="32" fill="#f4e04d" fill-opacity="0.55"/><rect x="292" y="480" width="32" height="32" fill="#f4e04d" fill-opacity="0.55"/><rect x="324" y="480" width="32" height="32" fill="#f4e04d" fill-opacity="0.55"/><rect x="132" y="512" width="32" height="32" fill="#f4e04d" fill-opacity="0.55"/><rect x="164" y="512" width="32" height="32" fill="#f4e04d" fill-opacity="0.55"/><rect x="196" y="512" width="32" height="32" fill="#f4e04d" fill-opacity="0.55"/><rect x="228" y="512" width="32" height="32" fill="#f4e04d" fill-opacity="0.55"/><rect x="260" y="512" width="32" height="32" fill="#f4e04d" fill-opacity="0.55"/><rect x="128" y="32" width="32" height="32" fill="#2effe0" fill-opacity="1"/><rect x="160" y="32" width="32" height="32" fill="#2effe0" fill-opacity="1"/><rect x="192" y="32" width="32" height="32" fill="#2effe0" fill-opacity="1"/><rect x="224" y="32" width="32" height="32" fill="#2effe0" fill-opacity="1"/><rect x="256" y="32" width="32" height="32" fill="#2effe0" fill-opacity="1"/><rect x="96" y="64" width="32" height="32" fill="#2effe0" fill-opacity="1"/><rect x="128" y="64" width="32" height="32" fill="#2effe0" fill-opacity="1"/><rect x="160" y="64" width="32" height="32" fill="#2effe0" fill-opacity="1"/><rect x="192" y="64" width="32" height="32" fill="#2effe0" fill-opacity="1"/><rect x="224" y="64" width="32" height="32" fill="#2effe0" fill-opacity="1"/><rect x="256" y="64" width="32" height="32" fill="#2effe0" fill-opacity="1"/><rect x="288" y="64" width="32" height="32" fill="#2effe0" fill-opacity="1"/><rect x="320" y="64" width="32" height="32" fill="#2effe0" fill-opacity="1"/><rect x="64" y="96" width="32" height="32" fill="#2effe0" fill-opacity="1"/><rect x="96" y="96" width="32" height="32" fill="#2effe0" fill-opacity="1"/><rect x="128" y="96" width="32" height="32" fill="#2effe0" fill-opacity="1"/><rect x="160" y="96" width="32" height="32" fill="#2effe0" fill-opacity="1"/><rect x="192" y="96" width="32" height="32" fill="#2effe0" fill-opacity="1"/><rect x="224" y="96" width="32" height="32" fill="#2effe0" fill-opacity="1"/><rect x="256" y="96" width="32" height="32" fill="#2effe0" fill-opacity="1"/><rect x="288" y="96" width="32" height="32" fill="#2effe0" fill-opacity="1"/><rect x="320" y="96" width="32" height="32" fill="#2effe0" fill-opacity="1"/><rect x="352" y="96" width="32" height="32" fill="#2effe0" fill-opacity="1"/><rect x="32" y="128" width="32" height="32" fill="#2effe0" fill-opacity="1"/><rect x="64" y="128" width="32" height="32" fill="#2effe0" fill-opacity="1"/><rect x="96" y="128" width="32" height="32" fill="#2effe0" fill-opacity="1"/><rect x="128" y="128" width="32" height="32" fill="#2effe0" fill-opacity="1"/><rect x="320" y="128" width="32" height="32" fill="#2effe0" fill-opacity="1"/><rect x="352" y="128" width="32" height="32" fill="#2effe0" fill-opacity="1"/><rect x="384" y="128" width="32" height="32" fill="#2effe0" fill-opacity="1"/><rect x="32" y="160" width="32" height="32" fill="#2effe0" fill-opacity="1"/><rect x="64" y="160" width="32" height="32" fill="#2effe0" fill-opacity="1"/><rect x="96" y="160" width="32" height="32" fill="#2effe0" fill-opacity="1"/><rect x="352" y="160" width="32" height="32" fill="#2effe0" fill-opacity="1"/><rect x="384" y="160" width="32" height="32" fill="#2effe0" fill-opacity="1"/><rect x="32" y="192" width="32" height="32" fill="#2effe0" fill-opacity="1"/><rect x="64" y="192" width="32" height="32" fill="#2effe0" fill-opacity="1"/><rect x="96" y="192" width="32" height="32" fill="#2effe0" fill-opacity="1"/><rect x="32" y="224" width="32" height="32" fill="#2effe0" fill-opacity="1"/><rect x="64" y="224" width="32" height="32" fill="#2effe0" fill-opacity="1"/><rect x="96" y="224" width="32" height="32" fill="#2effe0" fill-opacity="1"/><rect x="32" y="256" width="32" height="32" fill="#2effe0" fill-opacity="1"/><rect x="64" y="256" width="32" height="32" fill="#2effe0" fill-opacity="1"/><rect x="96" y="256" width="32" height="32" fill="#2effe0" fill-opacity="1"/><rect x="32" y="288" width="32" height="32" fill="#2effe0" fill-opacity="1"/><rect x="64" y="288" width="32" height="32" fill="#2effe0" fill-opacity="1"/><rect x="96" y="288" width="32" height="32" fill="#2effe0" fill-opacity="1"/><rect x="32" y="320" width="32" height="32" fill="#2effe0" fill-opacity="1"/><rect x="64" y="320" width="32" height="32" fill="#2effe0" fill-opacity="1"/><rect x="96" y="320" width="32" height="32" fill="#2effe0" fill-opacity="1"/><rect x="32" y="352" width="32" height="32" fill="#2effe0" fill-opacity="1"/><rect x="64" y="352" width="32" height="32" fill="#2effe0" fill-opacity="1"/><rect x="96" y="352" width="32" height="32" fill="#2effe0" fill-opacity="1"/><rect x="32" y="384" width="32" height="32" fill="#2effe0" fill-opacity="1"/><rect x="64" y="384" width="32" height="32" fill="#2effe0" fill-opacity="1"/><rect x="96" y="384" width="32" height="32" fill="#2effe0" fill-opacity="1"/><rect x="352" y="384" width="32" height="32" fill="#2effe0" fill-opacity="1"/><rect x="384" y="384" width="32" height="32" fill="#2effe0" fill-opacity="1"/><rect x="32" y="416" width="32" height="32" fill="#2effe0" fill-opacity="1"/><rect x="64" y="416" width="32" height="32" fill="#2effe0" fill-opacity="1"/><rect x="96" y="416" width="32" height="32" fill="#2effe0" fill-opacity="1"/><rect x="128" y="416" width="32" height="32" fill="#2effe0" fill-opacity="1"/><rect x="320" y="416" width="32" height="32" fill="#2effe0" fill-opacity="1"/><rect x="352" y="416" width="32" height="32" fill="#2effe0" fill-opacity="1"/><rect x="384" y="416" width="32" height="32" fill="#2effe0" fill-opacity="1"/><rect x="64" y="448" width="32" height="32" fill="#2effe0" fill-opacity="1"/><rect x="96" y="448" width="32" height="32" fill="#2effe0" fill-opacity="1"/><rect x="128" y="448" width="32" height="32" fill="#2effe0" fill-opacity="1"/><rect x="160" y="448" width="32" height="32" fill="#2effe0" fill-opacity="1"/><rect x="192" y="448" width="32" height="32" fill="#2effe0" fill-opacity="1"/><rect x="224" y="448" width="32" height="32" fill="#2effe0" fill-opacity="1"/><rect x="256" y="448" width="32" height="32" fill="#2effe0" fill-opacity="1"/><rect x="288" y="448" width="32" height="32" fill="#2effe0" fill-opacity="1"/><rect x="320" y="448" width="32" height="32" fill="#2effe0" fill-opacity="1"/><rect x="352" y="448" width="32" height="32" fill="#2effe0" fill-opacity="1"/><rect x="96" y="480" width="32" height="32" fill="#2effe0" fill-opacity="1"/><rect x="128" y="480" width="32" height="32" fill="#2effe0" fill-opacity="1"/><rect x="160" y="480" width="32" height="32" fill="#2effe0" fill-opacity="1"/><rect x="192" y="480" width="32" height="32" fill="#2effe0" fill-opacity="1"/><rect x="224" y="480" width="32" height="32" fill="#2effe0" fill-opacity="1"/><rect x="256" y="480" width="32" height="32" fill="#2effe0" fill-opacity="1"/><rect x="288" y="480" width="32" height="32" fill="#2effe0" fill-opacity="1"/><rect x="320" y="480" width="32" height="32" fill="#2effe0" fill-opacity="1"/><rect x="128" y="512" width="32" height="32" fill="#2effe0" fill-opacity="1"/><rect x="160" y="512" width="32" height="32" fill="#2effe0" fill-opacity="1"/><rect x="192" y="512" width="32" height="32" fill="#2effe0" fill-opacity="1"/><rect x="224" y="512" width="32" height="32" fill="#2effe0" fill-opacity="1"/><rect x="256" y="512" width="32" height="32" fill="#2effe0" fill-opacity="1"/></svg>